HIERARCHY
ROOT mixamorig:Hips
{
	OFFSET 0.000000 201.639420 0.000000
	CHANNELS 6 Xposition Yposition Zposition Xrotation Yrotation Zrotation
	JOINT mixamorig:Spine
	{
		OFFSET 0.006200 19.524994 -2.481800
		CHANNELS 3 Xrotation Yrotation Zrotation
		JOINT mixamorig:Spine1
		{
			OFFSET -0.000900 22.835007 -2.825400
			CHANNELS 3 Xrotation Yrotation Zrotation
			JOINT mixamorig:Spine2
			{
				OFFSET -0.020600 26.552490 -3.193300
				CHANNELS 3 Xrotation Yrotation Zrotation
				JOINT mixamorig:Neck
				{
					OFFSET -0.060000 30.701813 1.352200
					CHANNELS 3 Xrotation Yrotation Zrotation
					JOINT mixamorig:Head
					{
						OFFSET -0.087200 22.547607 3.670900
						CHANNELS 3 Xrotation Yrotation Zrotation
						JOINT mixamorig:HeadTop_End
						{
							OFFSET -0.830600 40.355194 7.893500
							CHANNELS 3 Xrotation Yrotation Zrotation
							End Site
							{
								OFFSET 0.000000 30.592346 0.000000
							}
						}
						JOINT mixamorig:RightEye
						{
							OFFSET -6.302100 18.118591 16.197100
							CHANNELS 3 Xrotation Yrotation Zrotation
							End Site
							{
								OFFSET 0.000000 30.592346 0.000000
							}
						}
						JOINT mixamorig:LeftEye
						{
							OFFSET 6.741500 18.382690 16.401899
							CHANNELS 3 Xrotation Yrotation Zrotation
							End Site
							{
								OFFSET 0.000000 30.592346 0.000000
							}
						}
					}
				}
				JOINT mixamorig:LeftShoulder
				{
					OFFSET 11.924900 18.230499 1.425400
					CHANNELS 3 Xrotation Yrotation Zrotation
					JOINT mixamorig:LeftArm
					{
						OFFSET 25.435989 -0.697632 -5.229300
						CHANNELS 3 Xrotation Yrotation Zrotation
						JOINT mixamorig:LeftForeArm
						{
							OFFSET 54.684776 0.000000 0.000000
							CHANNELS 3 Xrotation Yrotation Zrotation
							JOINT mixamorig:LeftHand
							{
								OFFSET 55.098175 0.000000 0.000000
								CHANNELS 3 Xrotation Yrotation Zrotation
								JOINT mixamorig:LeftHandMiddle1
								{
									OFFSET 23.369751 0.000000 0.000000
									CHANNELS 3 Xrotation Yrotation Zrotation
									JOINT mixamorig:LeftHandMiddle2
									{
										OFFSET 6.378677 0.000000 0.000000
										CHANNELS 3 Xrotation Yrotation Zrotation
										JOINT mixamorig:LeftHandMiddle3
										{
											OFFSET 6.148331 0.000000 0.000000
											CHANNELS 3 Xrotation Yrotation Zrotation
											JOINT mixamorig:LeftHandMiddle4
											{
												OFFSET 6.582504 0.000000 0.000000
												CHANNELS 3 Xrotation Yrotation Zrotation
												End Site
												{
													OFFSET -1.168900 6.395691 1.028606
												}
											}
										}
									}
								}
								JOINT mixamorig:LeftHandThumb1
								{
									OFFSET 7.235672 -3.848206 5.434273
									CHANNELS 3 Xrotation Yrotation Zrotation
									JOINT mixamorig:LeftHandThumb2
									{
										OFFSET 6.568451 -3.792297 3.792300
										CHANNELS 3 Xrotation Yrotation Zrotation
										JOINT mixamorig:LeftHandThumb3
										{
											OFFSET 6.063080 -3.500519 3.500518
											CHANNELS 3 Xrotation Yrotation Zrotation
											JOINT mixamorig:LeftHandThumb4
											{
												OFFSET 4.793182 -2.767334 2.767349
												CHANNELS 3 Xrotation Yrotation Zrotation
												End Site
												{
													OFFSET 0.101639 6.054260 1.275483
												}
											}
										}
									}
								}
								JOINT mixamorig:LeftHandIndex1
								{
									OFFSET 23.101074 -0.309540 4.992809
									CHANNELS 3 Xrotation Yrotation Zrotation
									JOINT mixamorig:LeftHandIndex2
									{
										OFFSET 6.226883 0.000000 0.000000
										CHANNELS 3 Xrotation Yrotation Zrotation
										JOINT mixamorig:LeftHandIndex3
										{
											OFFSET 6.094330 0.000000 0.000000
											CHANNELS 3 Xrotation Yrotation Zrotation
											JOINT mixamorig:LeftHandIndex4
											{
												OFFSET 5.482605 0.000000 0.000000
												CHANNELS 3 Xrotation Yrotation Zrotation
												End Site
												{
													OFFSET -1.427902 5.233032 0.797164
												}
											}
										}
									}
								}
								JOINT mixamorig:LeftHandRing1
								{
									OFFSET 22.299240 0.021149 -3.964172
									CHANNELS 3 Xrotation Yrotation Zrotation
									JOINT mixamorig:LeftHandRing2
									{
										OFFSET 6.321869 0.000000 0.000000
										CHANNELS 3 Xrotation Yrotation Zrotation
										JOINT mixamorig:LeftHandRing3
										{
											OFFSET 5.899796 0.000000 0.000000
											CHANNELS 3 Xrotation Yrotation Zrotation
											JOINT mixamorig:LeftHandRing4
											{
												OFFSET 6.517899 0.000000 0.000000
												CHANNELS 3 Xrotation Yrotation Zrotation
												End Site
												{
													OFFSET -1.637299 6.232208 0.980890
												}
											}
										}
									}
								}
								JOINT mixamorig:LeftHandPinky1
								{
									OFFSET 20.463791 -0.302338 -8.562233
									CHANNELS 3 Xrotation Yrotation Zrotation
									JOINT mixamorig:LeftHandPinky2
									{
										OFFSET 6.908646 0.000000 0.000000
										CHANNELS 3 Xrotation Yrotation Zrotation
										JOINT mixamorig:LeftHandPinky3
										{
											OFFSET 4.622849 0.000000 0.000000
											CHANNELS 3 Xrotation Yrotation Zrotation
											JOINT mixamorig:LeftHandPinky4
											{
												OFFSET 5.216080 0.000000 0.000000
												CHANNELS 3 Xrotation Yrotation Zrotation
												End Site
												{
													OFFSET -0.606308 5.116241 0.814926
												}
											}
										}
									}
								}
							}
						}
					}
				}
				JOINT mixamorig:RightShoulder
				{
					OFFSET -12.001300 18.284088 1.348900
					CHANNELS 3 Xrotation Yrotation Zrotation
					JOINT mixamorig:RightArm
					{
						OFFSET -25.308500 -0.751312 -5.164599
						CHANNELS 3 Xrotation Yrotation Zrotation
						JOINT mixamorig:RightForeArm
						{
							OFFSET -54.684429 0.000000 0.000000
							CHANNELS 3 Xrotation Yrotation Zrotation
							JOINT mixamorig:RightHand
							{
								OFFSET -55.150291 0.000000 0.000000
								CHANNELS 3 Xrotation Yrotation Zrotation
								JOINT mixamorig:RightHandMiddle1
								{
									OFFSET -23.317566 0.000000 0.000000
									CHANNELS 3 Xrotation Yrotation Zrotation
									JOINT mixamorig:RightHandMiddle2
									{
										OFFSET -6.378403 0.000000 0.000000
										CHANNELS 3 Xrotation Yrotation Zrotation
										JOINT mixamorig:RightHandMiddle3
										{
											OFFSET -6.148193 0.000000 0.000000
											CHANNELS 3 Xrotation Yrotation Zrotation
											JOINT mixamorig:RightHandMiddle4
											{
												OFFSET -6.583389 0.000000 0.000000
												CHANNELS 3 Xrotation Yrotation Zrotation
												End Site
												{
													OFFSET 1.171692 6.395905 1.029786
												}
											}
										}
									}
								}
								JOINT mixamorig:RightHandThumb1
								{
									OFFSET -7.190521 -3.860474 5.435846
									CHANNELS 3 Xrotation Yrotation Zrotation
									JOINT mixamorig:RightHandThumb2
									{
										OFFSET -6.567429 -3.791718 3.791708
										CHANNELS 3 Xrotation Yrotation Zrotation
										JOINT mixamorig:RightHandThumb3
										{
											OFFSET -6.062469 -3.500153 3.500166
											CHANNELS 3 Xrotation Yrotation Zrotation
											JOINT mixamorig:RightHandThumb4
											{
												OFFSET -4.792618 -2.767029 2.767022
												CHANNELS 3 Xrotation Yrotation Zrotation
												End Site
												{
													OFFSET -0.100327 6.053253 1.276754
												}
											}
										}
									}
								}
								JOINT mixamorig:RightHandIndex1
								{
									OFFSET -23.048981 -0.310791 4.992554
									CHANNELS 3 Xrotation Yrotation Zrotation
									JOINT mixamorig:RightHandIndex2
									{
										OFFSET -6.227539 0.000000 0.000000
										CHANNELS 3 Xrotation Yrotation Zrotation
										JOINT mixamorig:RightHandIndex3
										{
											OFFSET -6.095047 0.000000 0.000000
											CHANNELS 3 Xrotation Yrotation Zrotation
											JOINT mixamorig:RightHandIndex4
											{
												OFFSET -5.484772 0.000000 0.000000
												CHANNELS 3 Xrotation Yrotation Zrotation
												End Site
												{
													OFFSET 1.420593 5.237305 0.797056
												}
											}
										}
									}
								}
								JOINT mixamorig:RightHandRing1
								{
									OFFSET -22.246323 0.020569 -3.963762
									CHANNELS 3 Xrotation Yrotation Zrotation
									JOINT mixamorig:RightHandRing2
									{
										OFFSET -6.322128 0.000000 0.000000
										CHANNELS 3 Xrotation Yrotation Zrotation
										JOINT mixamorig:RightHandRing3
										{
											OFFSET -5.900024 0.000000 0.000000
											CHANNELS 3 Xrotation Yrotation Zrotation
											JOINT mixamorig:RightHandRing4
											{
												OFFSET -6.518356 0.000000 0.000000
												CHANNELS 3 Xrotation Yrotation Zrotation
												End Site
												{
													OFFSET 1.636398 6.232697 0.982186
												}
											}
										}
									}
								}
								JOINT mixamorig:RightHandPinky1
								{
									OFFSET -20.411011 -0.303314 -8.561701
									CHANNELS 3 Xrotation Yrotation Zrotation
									JOINT mixamorig:RightHandPinky2
									{
										OFFSET -6.907349 0.000000 0.000000
										CHANNELS 3 Xrotation Yrotation Zrotation
										JOINT mixamorig:RightHandPinky3
										{
											OFFSET -4.623840 0.000000 0.000000
											CHANNELS 3 Xrotation Yrotation Zrotation
											JOINT mixamorig:RightHandPinky4
											{
												OFFSET -5.218353 0.000000 0.000000
												CHANNELS 3 Xrotation Yrotation Zrotation
												End Site
												{
													OFFSET 0.602097 5.118835 0.816273
												}
											}
										}
									}
								}
							}
						}
					}
				}
			}
		}
	}
	JOINT mixamorig:LeftUpLeg
	{
		OFFSET 18.168400 -13.561905 -0.039000
		CHANNELS 3 Xrotation Yrotation Zrotation
		JOINT mixamorig:LeftLeg
		{
			OFFSET 0.577358 -80.825211 -3.695000
			CHANNELS 3 Xrotation Yrotation Zrotation
			JOINT mixamorig:LeftFoot
			{
				OFFSET -0.577356 -83.370262 -6.520700
				CHANNELS 3 Xrotation Yrotation Zrotation
				JOINT mixamorig:LeftToeBase
				{
					OFFSET 0.750401 -20.798306 25.135401
					CHANNELS 3 Xrotation Yrotation Zrotation
					JOINT mixamorig:LeftToe_End
					{
						OFFSET -0.000500 0.001200 19.917799
						CHANNELS 3 Xrotation Yrotation Zrotation
						End Site
						{
							OFFSET 0.000000 19.917805 0.000000
						}
					}
				}
			}
		}
	}
	JOINT mixamorig:RightUpLeg
	{
		OFFSET -18.162500 -13.585098 -0.041000
		CHANNELS 3 Xrotation Yrotation Zrotation
		JOINT mixamorig:RightLeg
		{
			OFFSET -0.595024 -80.945297 -3.631900
			CHANNELS 3 Xrotation Yrotation Zrotation
			JOINT mixamorig:RightFoot
			{
				OFFSET 0.595024 -83.218193 -6.561200
				CHANNELS 3 Xrotation Yrotation Zrotation
				JOINT mixamorig:RightToeBase
				{
					OFFSET -0.753601 -20.807106 25.115000
					CHANNELS 3 Xrotation Yrotation Zrotation
					JOINT mixamorig:RightToe_End
					{
						OFFSET 0.000299 0.001700 19.918200
						CHANNELS 3 Xrotation Yrotation Zrotation
						End Site
						{
							OFFSET 0.000000 19.918203 0.000000
						}
					}
				}
			}
		}
	}
}
MOTION
Frames: 4
Frame Time: 0.033333
1.180808 142.884888 -0.849797 31.886656 -84.643352 36.548636 3.571837 -1.347348 -4.216721 6.780471 -2.631390 -4.904838 6.746035 -2.698545 -4.908505 2.264938 2.583794 2.649123 -1.053172 13.736855 -3.564402 0.000000 -0.000002 0.000001 0.000000 -0.000002 0.000001 0.000000 -0.000002 0.000001 3.379916 -12.615295 -10.448380 -13.958822 -44.163443 -44.306665 0.000002 -16.533431 0.000013 -58.579479 29.143628 -38.949495 0.000093 0.036151 -0.299715 0.000004 0.001932 -0.015975 -0.000002 0.000005 0.000007 -0.000001 -0.000000 0.000002 -1.520328 3.681523 5.819024 12.211100 14.464537 -5.838159 3.407311 5.050074 -0.136139 -0.000001 -0.000000 -0.000001 0.000110 0.038092 -0.315689 0.000001 0.000019 -0.000031 -0.000009 -0.000009 -0.000000 -0.000001 0.000001 -0.000000 0.000103 0.038095 -0.315701 0.000000 0.000016 -0.000008 0.000009 0.000016 0.000016 -0.000000 -0.000000 -0.000003 0.004398 4.092393 0.194564 -0.018091 -4.054277 -0.511042 0.000004 0.000016 0.000022 -0.000001 -0.000000 0.000000 -2.739943 -9.985550 9.682488 -88.665008 75.014554 71.522804 0.000011 82.654510 -0.000010 -11.742324 2.698863 -4.845437 0.000001 -0.000016 -0.000005 -0.000001 -0.000002 0.000073 -0.000001 0.000004 0.000005 -0.000001 -0.000001 -0.000003 -1.849260 -3.581762 -6.586126 29.143628 -15.560242 22.478655 9.922375 -5.781502 7.581620 0.000000 -0.000006 -0.000001 0.000002 0.000003 -0.000000 -0.000002 -0.000014 0.000038 0.000002 0.000007 0.000002 0.000002 0.000000 0.000000 0.000000 -0.000016 -0.000003 -0.000000 -0.000020 0.000071 0.000000 0.000014 0.000007 -0.000001 -0.000000 -0.000003 0.000001 -0.000015 0.000002 0.000000 -0.000019 0.000004 -0.000001 0.000035 0.000001 -0.000001 0.000000 -0.000002 -56.209175 3.792253 50.199148 66.723585 -7.995536 -0.728686 -8.308393 -8.620322 -22.031272 -0.557547 0.000032 0.000014 0.000000 0.000001 -0.000001 -53.586775 9.952342 -48.759098 76.429578 7.657864 0.707627 -20.643615 9.071566 27.338283 -0.139029 0.000022 0.000001 0.000000 -0.000000 0.000000 
1.330196 143.254822 0.492303 55.647320 -86.923105 58.973820 3.506102 -1.577870 -4.031339 6.704748 -3.280289 -4.289564 6.659071 -3.357096 -4.293547 2.125219 1.822840 3.554442 -0.352243 13.005654 -3.270099 -0.000001 0.000000 -0.000000 -0.000001 0.000000 -0.000000 -0.000001 0.000000 -0.000000 3.241148 -11.978227 -10.446091 -14.954557 -46.937220 -45.328100 -0.000010 -13.481130 -0.000003 -60.368709 30.000298 -42.765710 0.000092 0.036149 -0.299714 0.000005 0.001933 -0.015982 -0.000003 0.000005 0.000010 -0.000000 -0.000000 0.000002 -1.520327 3.681524 5.819026 12.211098 14.464536 -5.838158 3.407308 5.050070 -0.136145 0.000000 0.000000 0.000000 0.000111 0.038090 -0.315686 0.000002 0.000019 -0.000034 -0.000008 -0.000011 -0.000005 0.000000 -0.000000 0.000005 0.000103 0.038092 -0.315694 0.000000 0.000017 -0.000010 0.000006 0.000016 0.000016 -0.000001 0.000000 0.000002 0.004397 4.092392 0.194569 -0.018090 -4.054275 -0.511050 0.000002 0.000016 0.000017 -0.000001 0.000000 -0.000003 -2.888996 -9.359990 9.638217 -80.177227 73.060245 62.651720 -0.000016 81.272817 0.000020 -11.883620 4.503555 -4.251609 0.000000 -0.000018 -0.000004 -0.000001 -0.000002 0.000075 0.000000 0.000002 0.000007 0.000002 -0.000001 -0.000000 -1.849258 -3.581761 -6.586128 29.143628 -15.560243 22.478661 9.922372 -5.781501 7.581619 0.000000 0.000003 -0.000001 0.000002 0.000005 0.000001 -0.000000 -0.000015 0.000037 0.000000 0.000004 0.000001 -0.000000 0.000001 -0.000001 -0.000000 -0.000015 -0.000003 -0.000001 -0.000018 0.000075 0.000001 0.000012 0.000008 -0.000001 -0.000000 -0.000001 0.000000 -0.000011 0.000001 0.000003 -0.000019 0.000004 0.000000 0.000031 -0.000004 -0.000001 0.000001 0.000002 -54.559776 2.848860 51.301428 68.120284 -7.347839 -0.640106 -9.182547 -6.827962 -21.272740 -1.030603 0.005771 -0.741288 -0.000000 0.000002 -0.000000 -53.962398 10.105857 -46.089293 75.229233 7.306232 0.731445 -19.033630 10.369490 26.822255 -0.103542 0.000049 -0.000009 -0.000000 0.000000 -0.000000 
1.453478 143.733902 2.356647 105.279914 -87.605967 107.666744 3.470176 -1.890844 -3.873574 6.687956 -4.063812 -3.705158 6.628685 -4.149681 -3.709119 2.062573 1.285741 4.213411 0.169127 12.572250 -3.005018 -0.000000 0.000000 -0.000000 -0.000000 0.000000 -0.000000 -0.000000 0.000000 -0.000000 2.939058 -10.435586 -10.361756 -15.085788 -48.933466 -46.567069 0.000000 -13.790607 0.000005 -63.513007 31.617755 -43.553459 0.000095 0.036148 -0.299707 0.000003 0.001932 -0.015975 -0.000002 0.000005 0.000011 -0.000000 -0.000000 0.000001 -1.520325 3.681524 5.819030 12.211100 14.464534 -5.838162 3.407305 5.050075 -0.136138 0.000000 0.000001 -0.000002 0.000112 0.038092 -0.315690 0.000001 0.000018 -0.000027 -0.000009 -0.000010 -0.000005 -0.000000 0.000000 -0.000000 0.000104 0.038093 -0.315694 0.000000 0.000018 -0.000010 0.000010 0.000016 0.000015 0.000000 0.000000 0.000004 0.004399 4.092393 0.194572 -0.018090 -4.054274 -0.511048 0.000004 0.000015 0.000014 -0.000001 0.000001 0.000004 -3.196019 -9.708011 9.570033 -76.236331 70.709083 59.272914 -0.000015 79.275164 0.000003 -12.234021 6.472706 -3.498747 0.000003 -0.000023 -0.000008 -0.000002 -0.000003 0.000072 0.000001 -0.000001 0.000004 0.000001 -0.000000 0.000001 -1.849257 -3.581767 -6.586128 29.143628 -15.560240 22.478656 9.922372 -5.781498 7.581621 0.000000 -0.000001 0.000000 0.000003 0.000001 0.000000 0.000000 -0.000016 0.000035 0.000003 0.000010 0.000000 0.000002 0.000002 -0.000001 0.000002 -0.000022 -0.000002 -0.000003 -0.000014 0.000073 -0.000001 0.000012 0.000003 -0.000002 -0.000002 0.000004 0.000001 -0.000015 0.000001 0.000003 -0.000022 0.000006 -0.000001 0.000034 0.000001 0.000000 0.000003 0.000002 -53.406926 2.614895 52.212288 69.535233 -6.970330 -0.577144 -10.512899 -5.384137 -20.842192 -1.078875 0.005408 -0.821005 -0.000000 0.000002 -0.000001 -54.090683 10.014907 -44.385937 73.385526 7.213129 0.762409 -17.676448 11.490158 26.777209 -0.037428 -0.000019 -0.000005 0.000000 -0.000000 -0.000000 
1.603207 144.333069 4.741355 137.269809 -86.748730 139.193272 3.463387 -2.268564 -3.751017 6.730864 -4.928349 -3.152428 6.656191 -5.022861 -3.155817 2.082352 0.980364 4.640566 0.504082 12.399240 -2.802324 -0.000002 0.000000 0.000000 -0.000002 0.000000 0.000000 -0.000002 0.000000 0.000000 2.557923 -8.407985 -10.144894 -14.321971 -50.545907 -47.341923 0.000009 -16.570690 0.000016 -67.843770 32.898388 -41.909221 0.000095 0.036149 -0.299711 0.000005 0.001932 -0.015982 -0.000001 0.000005 0.000009 0.000001 0.000000 0.000000 -1.520326 3.681522 5.819027 12.211097 14.464536 -5.838161 3.407306 5.050069 -0.136141 0.000002 0.000003 0.000001 0.000112 0.038091 -0.315687 -0.000000 0.000019 -0.000030 -0.000007 -0.000011 -0.000000 -0.000001 -0.000000 0.000001 0.000106 0.038094 -0.315699 0.000000 0.000017 -0.000010 0.000008 0.000015 0.000015 -0.000002 0.000000 0.000002 0.004398 4.092394 0.194567 -0.018091 -4.054276 -0.511052 0.000004 0.000017 0.000013 -0.000001 0.000000 -0.000000 -3.545770 -10.664624 9.466443 -75.253426 68.112682 59.545965 0.000020 76.650370 -0.000026 -12.802904 8.530825 -2.593944 0.000002 -0.000019 -0.000003 -0.000004 -0.000005 0.000080 -0.000002 0.000005 0.000006 0.000002 0.000001 -0.000000 -1.849258 -3.581761 -6.586123 29.143628 -15.560247 22.478658 9.922372 -5.781501 7.581620 0.000000 -0.000002 0.000000 0.000002 0.000005 0.000003 0.000001 -0.000014 0.000036 0.000003 0.000001 -0.000001 0.000001 0.000001 0.000001 0.000000 -0.000016 0.000000 -0.000001 -0.000016 0.000073 0.000002 0.000012 0.000005 -0.000000 0.000002 0.000004 0.000002 -0.000013 0.000003 0.000000 -0.000019 0.000006 0.000002 0.000032 -0.000001 0.000001 0.000004 0.000002 -52.945291 3.136230 52.801594 70.721807 -6.987282 -0.550381 -11.713289 -4.474166 -20.625990 -1.145782 0.006653 -0.913880 -0.000000 0.000002 -0.000000 -53.943827 9.687187 -43.784402 70.870166 7.392122 0.794915 -16.578204 12.329519 27.267744 0.012247 0.000006 0.000003 0.000000 0.000000 -0.000000 
